<?xml version="1.0" encoding="UTF-8"?>
<svg width="50px" height="50px" viewBox="0 0 50 50" version="1.1" xmlns="http://www.w3.org/2000/svg" xmlns:xlink="http://www.w3.org/1999/xlink">
    <!-- Generator: Sketch 48.2 (47327) - http://www.bohemiancoding.com/sketch -->
    <title>Logo Copy 9</title>
    <desc>Created with Sketch.</desc>
    <defs>
        <linearGradient x1="50%" y1="98.6450097%" x2="50%" y2="0%" id="linearGradient-1">
            <stop stop-color="#EF473A" offset="0%"></stop>
            <stop stop-color="#C70039" offset="100%"></stop>
        </linearGradient>
    </defs>
    <g id="Logo-Final" stroke="none" stroke-width="1" fill="none" fill-rule="evenodd">
        <g id="Logo-Copy-9">
            <g id="Group">
                <circle id="Oval-Copy-9" fill="url(#linearGradient-1)" cx="25" cy="25" r="25"></circle>
                <path d="M19.9995455,27.8125328 C20.1596978,27.7896539 20.3427262,27.835411 20.5486364,27.9498055 C20.7316676,28.0642 20.8346211,28.2129106 20.8575,28.3959418 C21.2464413,30.3406485 21.5667412,32.3082046 21.8184091,34.2986691 C21.8641669,34.4817003 21.8069705,34.6532895 21.6468182,34.8134418 C21.5095448,34.9507153 21.3493949,35.0307902 21.1663636,35.0536691 C21.0062113,35.076548 20.8346221,35.0307909 20.6515909,34.9163964 C20.5143175,34.8248808 20.4228033,34.6647309 20.3770455,34.4359418 C20.1711353,32.6513875 19.8622748,30.7295885 19.4504545,28.6704873 C19.4275756,28.4874561 19.4733328,28.2929883 19.5877273,28.0870782 C19.6792429,27.9269259 19.8165142,27.8354117 19.9995455,27.8125328 Z M10.6306818,37.7648055 C10.4476506,37.7190477 10.29894,37.6046549 10.1845455,37.4216237 C10.0930298,37.2614713 10.0815906,37.0670036 10.1502273,36.8382146 C10.9281099,34.2300197 11.4543168,31.5189105 11.7288636,28.7048055 C11.7746214,28.4531376 11.8661357,28.2701091 12.0034091,28.1557146 C12.1178036,28.064199 12.3008321,28.0184418 12.5525,28.0184418 C12.7584101,28.0184418 12.9299993,28.0870775 13.0672727,28.2243509 C13.227425,28.3845033 13.2846214,28.5675317 13.2388636,28.7734418 C12.9643168,31.6104257 12.4152314,34.4244885 11.5915909,37.2157146 C11.5229542,37.4216247 11.3971221,37.5817746 11.2140909,37.6961691 C11.0768175,37.7876847 10.8823497,37.8105633 10.6306818,37.7648055 Z M15.4009091,25.8220782 L10.5620455,26.0966237 C10.3561353,26.1195026 10.1845461,26.0623062 10.0472727,25.9250328 C9.86424151,25.7420015 9.77272727,25.5704123 9.77272727,25.41026 C9.77272727,25.2272288 9.84136295,25.0670789 9.97863636,24.9298055 C10.1387887,24.7696532 10.3103779,24.6781389 10.4934091,24.65526 L12.0034091,24.5523055 C12.2093192,24.5523055 12.3694691,24.4836698 12.4838636,24.3463964 L14.1654545,22.1843509 C14.2569702,22.0013197 14.2569702,21.8297305 14.1654545,21.6695782 L10.4590909,15.4923055 C10.1616652,15.0118485 10.1845437,14.5657166 10.5277273,14.1538964 C10.6421218,14.016623 10.813711,13.9479873 11.0425,13.9479873 C11.2484101,13.9479873 11.40856,14.0395015 11.5229545,14.2225328 L12.3465909,15.59526 C12.3923487,15.6410178 12.4495451,15.6638964 12.5181818,15.6638964 C12.5639396,15.6638964 12.6096967,15.6181393 12.6554545,15.5266237 C13.8909153,13.6047959 14.9776468,11.7516326 15.9156818,9.96707821 C16.0300763,9.78404699 16.1902262,9.65821492 16.3961364,9.58957821 C16.6249254,9.5209415 16.8308324,9.53238078 17.0138636,9.62389639 C17.1968949,9.6925331 17.3227269,9.82980445 17.3913636,10.0357146 C17.4600003,10.2645036 17.4485611,10.4589713 17.3570455,10.6191237 C16.304616,12.5867093 15.0234166,14.7258545 13.5134091,17.0366237 C13.4218935,17.1738971 13.4333328,17.334047 13.5477273,17.5170782 L15.195,20.3654873 C15.2636367,20.434124 15.3093938,20.4684418 15.3322727,20.4684418 C15.4237883,20.4684418 15.4809847,20.434124 15.5038636,20.3654873 C17.059629,18.2377494 18.615371,15.8583792 20.1711364,13.2273055 C20.2855309,13.0442743 20.4456808,12.9184422 20.6515909,12.8498055 C20.857501,12.7811688 21.0519688,12.8040473 21.235,12.9184418 C21.3951523,13.0099575 21.5095451,13.1701074 21.5781818,13.3988964 C21.6468185,13.6048065 21.6353792,13.787835 21.5438636,13.9479873 C19.4847624,17.4713383 17.1511494,20.8802436 14.5429545,24.1748055 C14.5200756,24.1976844 14.5086364,24.2434415 14.5086364,24.3120782 C14.5086364,24.3807149 14.5543935,24.4150328 14.6459091,24.4150328 L20.8231818,24.0718509 C20.9146974,24.0718509 20.9718938,24.0375331 20.9947727,23.9688964 C21.0405305,23.8773808 21.0519698,23.8087451 21.0290909,23.7629873 C20.7316652,22.6419211 20.3084118,21.3035254 19.7593182,19.74776 C19.6906815,19.518971 19.7021208,19.3245033 19.7936364,19.1643509 C19.9080309,18.9813197 20.0453022,18.8554876 20.2054545,18.7868509 C20.4342436,18.7410931 20.6401506,18.7639717 20.8231818,18.8554873 C21.006213,18.9470029 21.1320451,19.0957135 21.2006818,19.3016237 C22.0472012,21.6810295 22.7106794,23.9688854 23.1911364,26.16526 C23.2368942,26.3711701 23.2025763,26.5656379 23.0881818,26.7486691 C22.9966662,26.9088214 22.8365163,27.011775 22.6077273,27.0575328 C22.4018172,27.0804117 22.2187887,27.0460938 22.0586364,26.9545782 C21.8527262,26.8401837 21.7383334,26.6800338 21.7154545,26.4741237 L21.5438636,25.6848055 C21.5209847,25.5017743 21.4180312,25.4331386 21.235,25.4788964 L17.5972727,25.6848055 C17.4142415,25.7305633 17.3227273,25.8335168 17.3227273,25.9936691 L17.3227273,39.1375328 C17.3227273,39.3434429 17.2426523,39.5264713 17.0825,39.6866237 C16.9223477,39.846776 16.7278799,39.9268509 16.4990909,39.9268509 C16.2703019,39.9268509 16.0758341,39.846776 15.9156818,39.6866237 C15.7555295,39.5264713 15.6754545,39.3434429 15.6754545,39.1375328 L15.6754545,26.0966237 C15.6754545,25.9135924 15.5839403,25.8220782 15.4009091,25.8220782 Z M36.2663636,31.3816237 C37.7077345,33.5779983 39.3206729,35.4654794 41.1052273,37.0441237 C41.3111374,37.2500338 41.4140909,37.4445015 41.4140909,37.6275328 C41.4140909,37.810564 41.3454552,37.9935924 41.2081818,38.1766237 C41.0709084,38.336776 40.8764407,38.4397295 40.6247727,38.4854873 C40.3959837,38.5083662 40.201516,38.4397305 40.0413636,38.2795782 C36.9527118,35.511231 34.4932667,31.9192973 32.6629545,27.5036691 C32.6400756,27.4807902 32.6057578,27.4693509 32.56,27.4693509 C32.5371211,27.4693509 32.5256818,27.4922295 32.5256818,27.5379873 L32.5256818,35.2595782 C32.5256818,36.9754959 32.3540926,38.085106 32.0109091,38.5884418 C31.6677256,39.1146566 30.8440974,39.37776 29.54,39.37776 C28.7163595,39.37776 27.7211422,39.3320029 26.5543182,39.2404873 C26.371287,39.2404873 26.1996978,39.1604123 26.0395455,39.00026 C25.902272,38.8629866 25.8336364,38.6913974 25.8336364,38.4854873 C25.8336364,38.2795772 25.902272,38.107988 26.0395455,37.9707146 C26.15394,37.8563201 26.3140899,37.7991237 26.52,37.7991237 C27.6410662,37.8906393 28.5790871,37.9363964 29.3340909,37.9363964 C29.8374268,37.9363964 30.1691659,37.8906393 30.3293182,37.7991237 C30.5352283,37.6847292 30.6839389,37.4673828 30.7754545,37.1470782 C30.8669702,36.8496525 30.9127273,36.2548099 30.9127273,35.3625328 L30.9127273,30.5579873 C30.9127273,30.4664717 30.8898487,30.4207146 30.8440909,30.4207146 C30.7754542,30.4207146 30.7296971,30.4321539 30.7068182,30.4550328 C28.3502912,33.1776221 25.5934249,35.5913101 22.4361364,37.6961691 C22.275984,37.8334425 22.0815163,37.8791997 21.8527273,37.8334418 C21.6239383,37.787684 21.4409098,37.6847305 21.3036364,37.5245782 C21.1663629,37.3644259 21.1206058,37.1699581 21.1663636,36.9411691 C21.2121214,36.7123801 21.315075,36.5522302 21.4752273,36.4607146 C25.1816094,33.9897931 28.2702149,31.2901232 30.7411364,28.3616237 C30.8555309,28.1785924 30.9127273,28.0070033 30.9127273,27.8468509 L30.9127273,23.4198055 C30.9127273,23.2138954 30.8097738,23.1109418 30.6038636,23.1109418 L24.0834091,23.1109418 C23.877499,23.1109418 23.7059098,23.0423062 23.5686364,22.9050328 C23.431363,22.7677593 23.3627273,22.5961701 23.3627273,22.39026 C23.3627273,22.1843499 23.431363,22.0127607 23.5686364,21.8754873 C23.7059098,21.7382139 23.877499,21.6695782 24.0834091,21.6695782 L36.5409091,21.6695782 C36.7239403,21.6695782 36.8154545,21.5666247 36.8154545,21.3607146 L36.8154545,17.7916237 C36.8154545,17.5857135 36.7239403,17.48276 36.5409091,17.48276 L25.2502273,17.48276 C25.0671961,17.48276 24.9070461,17.4141244 24.7697727,17.2768509 C24.6324993,17.1395775 24.5638636,16.9679883 24.5638636,16.7620782 C24.5638636,16.579047 24.6324993,16.4188971 24.7697727,16.2816237 C24.9070461,16.1443503 25.0671961,16.0757146 25.2502273,16.0757146 L36.5409091,16.0757146 C36.7239403,16.0757146 36.8154545,15.9842003 36.8154545,15.8011691 L36.8154545,12.3350328 C36.8154545,12.1520015 36.7239403,12.0604873 36.5409091,12.0604873 L24.8040909,12.0604873 C24.6210597,12.0604873 24.4494705,11.9804123 24.2893182,11.82026 C24.1520448,11.6829866 24.0834091,11.5228367 24.0834091,11.3398055 C24.0834091,11.1110165 24.1520448,10.927988 24.2893182,10.7907146 C24.4265916,10.6534412 24.5981808,10.5848055 24.8040909,10.5848055 L36.5752273,10.5848055 C37.101442,10.5848055 37.5590132,10.7792732 37.9479545,11.1682146 C38.3368959,11.5571559 38.5313636,12.0147271 38.5313636,12.5409418 L38.5313636,21.3607146 C38.5313636,21.5666247 38.6228779,21.6695782 38.8059091,21.6695782 L40.2472727,21.6695782 C40.4531828,21.6695782 40.624772,21.7382139 40.7620455,21.8754873 C40.8993189,22.0127607 40.9679545,22.1843499 40.9679545,22.39026 C40.9679545,22.5961701 40.8993189,22.7677593 40.7620455,22.9050328 C40.624772,23.0423062 40.4531828,23.1109418 40.2472727,23.1109418 L32.7659091,23.1109418 C32.6057568,23.1109418 32.5256818,23.1910168 32.5256818,23.3511691 C32.5256818,23.4655636 32.5485604,23.6142743 32.5943182,23.7973055 C33.2578063,25.78777 34.104313,27.6981297 35.1338636,29.5284418 C35.2482581,29.734352 35.3626509,29.7572305 35.4770455,29.5970782 C36.7811429,28.2014652 37.9365101,26.6228446 38.9431818,24.8611691 C39.0575763,24.6781379 39.1948477,24.5751844 39.355,24.5523055 C39.5609101,24.5294266 39.7439386,24.5637444 39.9040909,24.65526 C40.0871221,24.7925334 40.1900756,24.9641226 40.2129545,25.1700328 C40.2358334,25.3759429 40.2015156,25.5818499 40.11,25.78776 C38.9889338,27.7095878 37.7191738,29.436919 36.3006818,30.9698055 C36.1634084,31.1070789 36.1519691,31.2443503 36.2663636,31.3816237 Z M25.2159091,24.8268509 C26.2912175,26.451253 27.172042,27.8926022 27.8584091,29.1509418 C27.9499247,29.3339731 27.961364,29.5284408 27.8927273,29.7343509 C27.8240906,29.96314 27.7096978,30.1232899 27.5495455,30.2148055 C27.3665142,30.3292 27.1834858,30.3520786 27.0004545,30.2834418 C26.7945444,30.2148051 26.6458338,30.1004123 26.5543182,29.94026 C25.9365878,28.773436 25.0557633,27.3092082 23.9118182,25.5475328 C23.8203026,25.3873804 23.7859847,25.204352 23.8088636,24.9984418 C23.8317425,24.8154106 23.9461353,24.6667 24.1520455,24.5523055 C24.2893189,24.4607899 24.4837866,24.4379113 24.7354545,24.4836691 C24.9413647,24.506548 25.1015146,24.6209408 25.2159091,24.8268509 Z" id="緑-copy-8" fill="#FFFFFF"></path>
            </g>
        </g>
    </g>
</svg>