<?xml version="1.0" encoding="UTF-8"?>
<svg width="220px" height="220px" viewBox="0 0 220 220" version="1.1" xmlns="http://www.w3.org/2000/svg" xmlns:xlink="http://www.w3.org/1999/xlink">
    <!-- Generator: Sketch 48.2 (47327) - http://www.bohemiancoding.com/sketch -->
    <title>logo-black</title>
    <desc>Created with Sketch.</desc>
    <defs></defs>
    <g id="Logo-Final" stroke="none" stroke-width="1" fill="none" fill-rule="evenodd">
        <g id="logo-black">
            <circle id="Oval-Copy-9" fill="#000000" cx="110" cy="110" r="110"></circle>
            <path d="M87.998,122.375144 C88.7026702,122.274477 89.5079955,122.475808 90.414,122.979144 C91.2193374,123.48248 91.6723328,124.136807 91.773,124.942144 C93.4843419,133.498854 94.8936611,142.1561 96.001,150.914144 C96.2023343,151.719481 95.9506702,152.474474 95.246,153.179144 C94.641997,153.783147 93.9373374,154.135477 93.132,154.236144 C92.4273298,154.336811 91.6723374,154.13548 90.867,153.632144 C90.262997,153.229475 89.8603343,152.524816 89.659,151.518144 C88.7529955,143.666105 87.3940091,135.210189 85.582,126.150144 C85.4813328,125.344807 85.6826641,124.489149 86.186,123.583144 C86.5886687,122.878474 87.1926626,122.475811 87.998,122.375144 Z M46.775,166.165144 C45.9696626,165.96381 45.3153358,165.460481 44.812,164.655144 C44.4093313,163.950474 44.3589985,163.094816 44.661,162.088144 C48.0836838,150.612087 50.398994,138.683206 51.607,126.301144 C51.8083343,125.193805 52.210997,124.38848 52.815,123.885144 C53.3183359,123.482475 54.1236611,123.281144 55.231,123.281144 C56.1370045,123.281144 56.891997,123.583141 57.496,124.187144 C58.2006702,124.891814 58.4523343,125.69714 58.251,126.603144 C57.042994,139.085873 54.6270181,151.467749 51.003,163.749144 C50.7009985,164.655149 50.1473374,165.359808 49.342,165.863144 C48.737997,166.265813 47.8823389,166.366478 46.775,166.165144 Z M67.764,113.617144 L46.473,114.825144 C45.5669955,114.925811 44.812003,114.674147 44.208,114.070144 C43.4026626,113.264807 43,112.509814 43,111.805144 C43,110.999807 43.301997,110.295147 43.906,109.691144 C44.6106702,108.986474 45.3656626,108.583811 46.171,108.483144 L52.815,108.030144 C53.7210045,108.030144 54.4256642,107.728147 54.929,107.124144 L62.328,97.6111441 C62.7306687,96.8058068 62.7306687,96.0508143 62.328,95.3461441 L46.02,68.1661441 C44.7113268,66.0521336 44.8119924,64.0891532 46.322,62.2771441 C46.8253359,61.6731411 47.5803283,61.3711441 48.587,61.3711441 C49.4930045,61.3711441 50.1976642,61.7738068 50.701,62.5791441 L54.325,68.6191441 C54.5263343,68.8204785 54.7779985,68.9211441 55.08,68.9211441 C55.2813343,68.9211441 55.4826657,68.7198128 55.684,68.3171441 C61.1200272,59.8611018 65.901646,51.7071834 70.029,43.8551441 C70.5323358,43.0498068 71.2369955,42.4961456 72.143,42.1941441 C73.1496717,41.8921426 74.0556626,41.9424754 74.861,42.3451441 C75.6663374,42.6471456 76.2199985,43.2511396 76.522,44.1571441 C76.8240015,45.1638158 76.7736687,46.0194739 76.371,46.7241441 C71.7403102,55.3815207 66.1030332,64.79376 59.459,74.9611441 C59.0563313,75.5651471 59.1066641,76.2698068 59.61,77.0751441 L66.858,89.6081441 C67.1600015,89.9101456 67.3613328,90.0611441 67.462,90.0611441 C67.8646687,90.0611441 68.1163328,89.9101456 68.217,89.6081441 C75.0623676,80.2460973 81.9076324,69.7768687 88.753,58.2001441 C89.2563358,57.3948068 89.9609955,56.8411456 90.867,56.5391441 C91.7730045,56.2371426 92.6286626,56.3378083 93.434,56.8411441 C94.1386702,57.2438128 94.6419985,57.9484724 94.944,58.9551441 C95.2460015,59.8611487 95.1956687,60.6664739 94.793,61.3711441 C85.7329547,76.8738883 75.4650574,91.8730716 63.989,106.369144 C63.8883328,106.469811 63.838,106.671143 63.838,106.973144 C63.838,107.275146 64.0393313,107.426144 64.442,107.426144 L91.622,105.916144 C92.0246687,105.916144 92.2763328,105.765146 92.377,105.463144 C92.5783343,105.060475 92.6286672,104.758478 92.528,104.557144 C91.2193268,99.6244528 89.3570121,93.7355117 86.941,86.8901441 C86.6389985,85.8834724 86.6893313,85.0278143 87.092,84.3231441 C87.5953359,83.5178068 88.1993298,82.9641456 88.904,82.6621441 C89.9106717,82.4608098 90.8166626,82.5614754 91.622,82.9641441 C92.4273374,83.3668128 92.9809985,84.0211396 93.283,84.9271441 C97.0076853,95.3965298 99.9269894,105.463096 102.041,115.127144 C102.242334,116.033149 102.091336,116.888807 101.588,117.694144 C101.185331,118.398814 100.480672,118.85181 99.474,119.053144 C98.5679955,119.153811 97.7626702,119.002813 97.058,118.600144 C96.1519955,118.096808 95.6486672,117.392149 95.548,116.486144 L94.793,113.013144 C94.6923328,112.207807 94.2393374,111.90581 93.434,112.107144 L77.428,113.013144 C76.6226626,113.214478 76.22,113.667474 76.22,114.372144 L76.22,172.205144 C76.22,173.111149 75.8676702,173.916474 75.163,174.621144 C74.4583298,175.325814 73.6026717,175.678144 72.596,175.678144 C71.5893283,175.678144 70.7336702,175.325814 70.029,174.621144 C69.3243298,173.916474 68.972,173.111149 68.972,172.205144 L68.972,114.825144 C68.972,114.019807 68.5693374,113.617144 67.764,113.617144 Z M159.572,138.079144 C165.914032,147.743192 173.010961,156.048109 180.863,162.994144 C181.769005,163.900149 182.222,164.755807 182.222,165.561144 C182.222,166.366481 181.920003,167.171807 181.316,167.977144 C180.711997,168.681814 179.856339,169.13481 178.749,169.336144 C177.742328,169.436811 176.88667,169.134814 176.182,168.430144 C162.591932,156.249417 151.770374,140.444908 143.717,121.016144 C143.616333,120.915477 143.465334,120.865144 143.264,120.865144 C143.163333,120.865144 143.113,120.96581 143.113,121.167144 L143.113,155.142144 C143.113,162.692182 142.358008,167.574466 140.848,169.789144 C139.337992,172.104489 135.714029,173.262144 129.976,173.262144 C126.351982,173.262144 121.973026,173.060813 116.839,172.658144 C116.033663,172.658144 115.27867,172.305814 114.574,171.601144 C113.969997,170.997141 113.668,170.242149 113.668,169.336144 C113.668,168.43014 113.969997,167.675147 114.574,167.071144 C115.077336,166.567808 115.781995,166.316144 116.688,166.316144 C121.620691,166.718813 125.747983,166.920144 129.07,166.920144 C131.284678,166.920144 132.74433,166.718813 133.449,166.316144 C134.355005,165.812808 135.009331,164.856485 135.412,163.447144 C135.814669,162.138471 136.016,159.521164 136.016,155.595144 L136.016,134.455144 C136.016,134.052475 135.915334,133.851144 135.714,133.851144 C135.411998,133.851144 135.210667,133.901477 135.11,134.002144 C124.741281,145.981537 112.611069,156.601764 98.719,165.863144 C98.0143298,166.467147 97.1586717,166.668478 96.152,166.467144 C95.1453283,166.26581 94.340003,165.812814 93.736,165.108144 C93.131997,164.403474 92.9306657,163.547816 93.132,162.541144 C93.3333343,161.534472 93.7863298,160.829813 94.491,160.427144 C110.799082,149.55509 124.388946,137.676542 135.261,124.791144 C135.764336,123.985807 136.016,123.230814 136.016,122.526144 L136.016,103.047144 C136.016,102.14114 135.563005,101.688144 134.657,101.688144 L105.967,101.688144 C105.060995,101.688144 104.306003,101.386147 103.702,100.782144 C103.097997,100.178141 102.796,99.4231487 102.796,98.5171441 C102.796,97.6111396 103.097997,96.8561471 103.702,96.2521441 C104.306003,95.6481411 105.060995,95.3461441 105.967,95.3461441 L160.78,95.3461441 C161.585337,95.3461441 161.988,94.8931487 161.988,93.9871441 L161.988,78.2831441 C161.988,77.3771396 161.585337,76.9241441 160.78,76.9241441 L111.101,76.9241441 C110.295663,76.9241441 109.591003,76.6221471 108.987,76.0181441 C108.382997,75.4141411 108.081,74.6591487 108.081,73.7531441 C108.081,72.9478068 108.382997,72.2431471 108.987,71.6391441 C109.591003,71.0351411 110.295663,70.7331441 111.101,70.7331441 L160.78,70.7331441 C161.585337,70.7331441 161.988,70.3304815 161.988,69.5251441 L161.988,54.2741441 C161.988,53.4688068 161.585337,53.0661441 160.78,53.0661441 L109.138,53.0661441 C108.332663,53.0661441 107.57767,52.7138143 106.873,52.0091441 C106.268997,51.4051411 105.967,50.7004815 105.967,49.8951441 C105.967,48.8884724 106.268997,48.0831471 106.873,47.4791441 C107.477003,46.8751411 108.231995,46.5731441 109.138,46.5731441 L160.931,46.5731441 C163.246345,46.5731441 165.259658,47.4288022 166.971,49.1401441 C168.682342,50.851486 169.538,52.8647992 169.538,55.1801441 L169.538,93.9871441 C169.538,94.8931487 169.940663,95.3461441 170.746,95.3461441 L177.088,95.3461441 C177.994005,95.3461441 178.748997,95.6481411 179.353,96.2521441 C179.957003,96.8561471 180.259,97.6111396 180.259,98.5171441 C180.259,99.4231487 179.957003,100.178141 179.353,100.782144 C178.748997,101.386147 177.994005,101.688144 177.088,101.688144 L144.17,101.688144 C143.46533,101.688144 143.113,102.040474 143.113,102.745144 C143.113,103.24848 143.213666,103.902807 143.415,104.708144 C146.334348,113.466188 150.058977,121.871771 154.589,129.925144 C155.092336,130.831149 155.595664,130.931814 156.099,130.227144 C161.837029,124.086447 166.920645,117.140516 171.35,109.389144 C171.853336,108.583807 172.45733,108.130811 173.162,108.030144 C174.068005,107.929477 174.87333,108.080475 175.578,108.483144 C176.383337,109.087147 176.836333,109.84214 176.937,110.748144 C177.037667,111.654149 176.886669,112.56014 176.484,113.466144 C171.551309,121.922186 165.964365,129.522444 159.723,136.267144 C159.118997,136.871147 159.068664,137.475141 159.572,138.079144 Z M110.95,109.238144 C115.681357,116.385513 119.556985,122.72745 122.577,128.264144 C122.979669,129.069481 123.030002,129.92514 122.728,130.831144 C122.425998,131.837816 121.92267,132.542475 121.218,132.945144 C120.412663,133.44848 119.607337,133.549146 118.802,133.247144 C117.895995,132.945143 117.241669,132.441814 116.839,131.737144 C114.120986,126.603118 110.245359,120.160516 105.212,112.409144 C104.809331,111.704474 104.658333,110.899149 104.759,109.993144 C104.859667,109.187807 105.362995,108.53348 106.269,108.030144 C106.873003,107.627475 107.728661,107.52681 108.836,107.728144 C109.742005,107.828811 110.446664,108.33214 110.95,109.238144 Z" id="緑-copy-8" fill="#FFFFFF"></path>
        </g>
    </g>
</svg>