<?xml version="1.0" encoding="UTF-8"?>
<svg width="50px" height="50px" viewBox="0 0 50 50" version="1.1" xmlns="http://www.w3.org/2000/svg" xmlns:xlink="http://www.w3.org/1999/xlink">
    <!-- Generator: Sketch 48.2 (47327) - http://www.bohemiancoding.com/sketch -->
    <title>Logo Copy 4</title>
    <desc>Created with Sketch.</desc>
    <defs></defs>
    <g id="Logo-Final" stroke="none" stroke-width="1" fill="none" fill-rule="evenodd">
        <g id="Logo-Copy-4">
            <circle id="Oval-Copy-23" stroke="#C70039" stroke-width="1.30909091" cx="25" cy="25" r="24"></circle>
            <path d="M21.0195228,28.4365016 C21.1764288,28.414663 21.3557474,28.4583396 21.5574837,28.5675328 C21.7368049,28.676726 21.8376716,28.8186749 21.8600868,28.993384 C22.2411443,30.8496678 22.5549518,32.7277621 22.8015184,34.6277231 C22.8463487,34.8024322 22.7903117,34.9662195 22.6334056,35.1190899 C22.4989147,35.2501217 22.342011,35.3265558 22.1626898,35.3483944 C22.0057837,35.3702331 21.8376726,35.3265565 21.6583514,35.2173633 C21.5238605,35.1300088 21.4342012,34.9771406 21.3893709,34.7587543 C21.1876346,33.0553409 20.8850346,31.2209233 20.4815618,29.2554463 C20.4591467,29.0807372 20.5039763,28.8951116 20.6160521,28.6985639 C20.7057127,28.5456935 20.8402016,28.4583403 21.0195228,28.4365016 Z M11.840564,37.9362595 C11.6612428,37.8925822 11.5155465,37.7833907 11.4034707,37.6086816 C11.3138101,37.4558112 11.3026027,37.2701856 11.3698482,37.0517993 C12.1319633,34.5621951 12.6475041,31.9743559 12.9164859,29.2882041 C12.9613162,29.0479791 13.0509755,28.8732727 13.1854664,28.7640795 C13.2975421,28.676725 13.4768607,28.6330484 13.7234273,28.6330484 C13.9251637,28.6330484 14.0932748,28.6985633 14.2277657,28.8295951 C14.3846718,28.9824655 14.4407088,29.1571719 14.3958785,29.3537196 C14.1268967,32.0617101 13.5889411,34.7478217 12.7819957,37.4121349 C12.7147502,37.6086826 12.5914687,37.7615508 12.4121475,37.8707439 C12.2776566,37.9580985 12.0871307,37.9799368 11.840564,37.9362595 Z M16.5140998,26.5365501 L11.7733189,26.7986124 C11.5715825,26.820451 11.4034714,26.7658552 11.2689805,26.6348234 C11.0896593,26.4601144 11,26.2963271 11,26.1434566 C11,25.9687476 11.0672444,25.8158794 11.2017354,25.6848476 C11.3586414,25.5319772 11.5267525,25.444624 11.7060738,25.4227854 L13.1854664,25.324512 C13.3872027,25.324512 13.5441065,25.2589971 13.6561822,25.1279653 L15.3036876,23.0642248 C15.3933482,22.8895157 15.3933482,22.7257284 15.3036876,22.572858 L11.6724512,16.6764566 C11.3810542,16.2178453 11.403469,15.7919983 11.7396963,15.3989029 C11.8517721,15.2678711 12.0198832,15.2023562 12.2440347,15.2023562 C12.4457711,15.2023562 12.6026748,15.2897094 12.7147505,15.4644185 L13.521692,16.7747299 C13.5665223,16.8184072 13.6225593,16.8402455 13.6898048,16.8402455 C13.7346351,16.8402455 13.7794647,16.7965689 13.824295,16.7092144 C15.0347132,14.8747692 16.099417,13.1058664 17.0184382,11.4024531 C17.1305139,11.227744 17.2874176,11.1076333 17.489154,11.0421174 C17.7133055,10.9766015 17.9150389,10.9875207 18.0943601,11.0748752 C18.2736813,11.1403911 18.3969628,11.2714209 18.4642082,11.4679686 C18.5314537,11.686355 18.5202463,11.8719806 18.4305857,12.024851 C17.3994887,13.9029734 16.144259,15.944855 14.664859,18.1505569 C14.5751984,18.2815887 14.5864058,18.4344569 14.6984816,18.6091659 L16.3123644,21.3280621 C16.3796099,21.393578 16.4244395,21.4263355 16.4468547,21.4263355 C16.5365153,21.4263355 16.5925523,21.393578 16.6149675,21.3280621 C18.1391978,19.2970693 19.6634052,17.0258855 21.1876356,14.5144427 C21.2997113,14.3397336 21.456615,14.219623 21.6583514,14.1541071 C21.8600878,14.0885912 22.0506137,14.1104295 22.2299349,14.2196226 C22.386841,14.3069772 22.4989151,14.4598453 22.5661605,14.6782316 C22.633406,14.8747793 22.6221986,15.0494858 22.532538,15.2023562 C20.5151743,18.5655057 18.2288631,21.8194132 15.6735358,24.9641764 C15.6511206,24.986015 15.6399132,25.0296916 15.6399132,25.0952075 C15.6399132,25.1607234 15.6847429,25.1934809 15.7744035,25.1934809 L21.8264642,24.865903 C21.9161248,24.865903 21.9721619,24.8331455 21.994577,24.7676296 C22.0394073,24.6802751 22.0506147,24.6147602 22.0281996,24.5710829 C21.7368026,23.5009899 21.3221285,22.223449 20.7841649,20.738422 C20.7169194,20.5200357 20.7281268,20.3344101 20.8177874,20.1815396 C20.9298632,20.0068306 21.0643521,19.8867199 21.2212581,19.821204 C21.4454097,19.7775267 21.647143,19.799365 21.8264642,19.8867196 C22.0057854,19.9740741 22.1290669,20.1160231 22.1963124,20.3125708 C23.025673,22.5837886 23.6757026,24.7676192 24.1464208,26.8641279 C24.1912511,27.0606756 24.1576289,27.2463012 24.0455531,27.4210103 C23.9558925,27.5738807 23.7989888,27.6721531 23.5748373,27.7158304 C23.3731009,27.737669 23.1937824,27.7049115 23.0368764,27.617557 C22.83514,27.5083638 22.7230659,27.3554957 22.7006508,27.158948 L22.532538,26.4055189 C22.5101228,26.2308099 22.4092561,26.1652949 22.2299349,26.2089722 L18.6659436,26.4055189 C18.4866224,26.4491962 18.3969631,26.5474686 18.3969631,26.700339 L18.3969631,39.2465709 C18.3969631,39.4431186 18.3185113,39.6178251 18.1616052,39.7706955 C18.0046991,39.9235659 17.8141732,40 17.5900217,40 C17.3658702,40 17.1753442,39.9235659 17.0184382,39.7706955 C16.8615321,39.6178251 16.7830803,39.4431186 16.7830803,39.2465709 L16.7830803,26.7986124 C16.7830803,26.6239033 16.693421,26.5365501 16.5140998,26.5365501 Z M36.9566161,31.8433114 C38.3687706,33.9398201 39.9490151,35.7414803 41.697397,37.248346 C41.8991333,37.4448937 42,37.6305193 42,37.8052284 C42,37.9799374 41.9327556,38.1546439 41.7982646,38.3293529 C41.6637737,38.4822234 41.4732478,38.5804957 41.2266811,38.624173 C41.0025296,38.6460116 40.8120037,38.5804967 40.6550976,38.4276263 C37.6290521,35.7851517 35.2194594,32.3565377 33.4262473,28.1416816 C33.4038321,28.1198429 33.3702099,28.1089238 33.3253796,28.1089238 C33.3029645,28.1089238 33.291757,28.1307621 33.291757,28.1744394 L33.291757,35.5449411 C33.291757,37.1828386 33.1236459,38.2419964 32.7874187,38.7224464 C32.4511914,39.2247349 31.644258,39.4758754 30.3665944,39.4758754 C29.5596489,39.4758754 28.5846044,39.4321988 27.4414317,39.3448443 C27.2621105,39.3448443 27.0939993,39.2684102 26.9370933,39.1155398 C26.8026024,38.984508 26.7353579,38.8207207 26.7353579,38.624173 C26.7353579,38.4276253 26.8026024,38.263838 26.9370933,38.1328062 C27.049169,38.023613 27.2060727,37.9690173 27.4078091,37.9690173 C28.5061516,38.0563718 29.425159,38.1000484 30.164859,38.1000484 C30.6579923,38.1000484 30.9830072,38.0563718 31.1399132,37.9690173 C31.3416496,37.8598241 31.4873459,37.6523602 31.5770065,37.3466194 C31.6666671,37.0627171 31.7114967,36.4949212 31.7114967,35.6432145 L31.7114967,31.0571245 C31.7114967,30.96977 31.6890819,30.9260934 31.6442516,30.9260934 C31.5770062,30.9260934 31.5321765,30.9370125 31.5097614,30.9588511 C29.2010007,33.5576485 26.5000155,35.8615897 23.4067245,37.8707439 C23.2498184,38.0017757 23.0592925,38.0454523 22.835141,38.0017751 C22.6109895,37.9580978 22.431671,37.8598254 22.29718,37.706955 C22.1626891,37.5540846 22.1178595,37.368459 22.1626898,37.1500726 C22.2075201,36.9316863 22.3083868,36.7788182 22.4652928,36.6914636 C26.0965474,34.3328913 29.1225475,31.7559712 31.5433839,28.9606262 C31.6554597,28.7859172 31.7114967,28.6221299 31.7114967,28.4692594 L31.7114967,24.2435051 C31.7114967,24.0469574 31.6106301,23.948685 31.4088937,23.948685 L25.0206074,23.948685 C24.818871,23.948685 24.6507599,23.8831701 24.516269,23.7521383 C24.3817781,23.6211065 24.3145336,23.4573192 24.3145336,23.2607715 C24.3145336,23.0642238 24.3817781,22.9004365 24.516269,22.7694047 C24.6507599,22.6383729 24.818871,22.572858 25.0206074,22.572858 L37.2255965,22.572858 C37.4049177,22.572858 37.494577,22.4745856 37.494577,22.2780379 L37.494577,18.8712282 C37.494577,18.6746805 37.4049177,18.5764081 37.2255965,18.5764081 L26.1637744,18.5764081 C25.9844532,18.5764081 25.8275495,18.5108932 25.6930586,18.3798614 C25.5585677,18.2488296 25.4913232,18.0850423 25.4913232,17.8884946 C25.4913232,17.7137856 25.5585677,17.5609174 25.6930586,17.4298856 C25.8275495,17.2988538 25.9844532,17.2333389 26.1637744,17.2333389 L37.2255965,17.2333389 C37.4049177,17.2333389 37.494577,17.1459857 37.494577,16.9712766 L37.494577,13.6627403 C37.494577,13.4880312 37.4049177,13.400678 37.2255965,13.400678 L25.7266811,13.400678 C25.5473599,13.400678 25.3792488,13.3242439 25.2223427,13.1713735 C25.0878518,13.0403417 25.0206074,12.8874736 25.0206074,12.7127645 C25.0206074,12.4943782 25.0878518,12.3196717 25.2223427,12.1886399 C25.3568336,12.0576081 25.5249448,11.9920932 25.7266811,11.9920932 L37.2592191,11.9920932 C37.7747676,11.9920932 38.2230639,12.1777188 38.6041215,12.5489756 C38.9851791,12.9202323 39.175705,13.3569984 39.175705,13.859287 L39.175705,22.2780379 C39.175705,22.4745856 39.2653643,22.572858 39.4446855,22.572858 L40.856833,22.572858 C41.0585693,22.572858 41.2266805,22.6383729 41.3611714,22.7694047 C41.4956623,22.9004365 41.5629067,23.0642238 41.5629067,23.2607715 C41.5629067,23.4573192 41.4956623,23.6211065 41.3611714,23.7521383 C41.2266805,23.8831701 41.0585693,23.948685 40.856833,23.948685 L33.527115,23.948685 C33.3702089,23.948685 33.291757,24.0251191 33.291757,24.1779895 C33.291757,24.2871827 33.3141719,24.4291317 33.3590022,24.6038407 C34.0090416,26.5038018 34.8383898,28.3273003 35.8470716,30.0743909 C35.9591473,30.2709386 36.0712214,30.2927769 36.1832972,30.1399065 C37.4609608,28.8077499 38.592909,27.3009068 39.5791757,25.6193321 C39.6912515,25.444623 39.8257404,25.3463506 39.9826464,25.324512 C40.1843828,25.3026734 40.3637013,25.3354308 40.5206074,25.4227854 C40.6999286,25.5538172 40.8007953,25.7176044 40.8232104,25.9141521 C40.8456256,26.1106998 40.8120033,26.3072446 40.7223427,26.5037923 C39.6240003,28.3382375 38.379978,29.9870295 36.9902386,31.4502179 C36.8557477,31.5812497 36.8445403,31.7122796 36.9566161,31.8433114 Z M26.1301518,25.5865743 C27.183664,27.1371172 28.0466344,28.5129305 28.7190889,29.7140553 C28.8087495,29.8887643 28.819957,30.0743899 28.7527115,30.2709376 C28.685466,30.489324 28.573392,30.6421921 28.4164859,30.7295466 C28.2371647,30.8387398 28.0578462,30.8605781 27.8785249,30.7950622 C27.6767886,30.7295463 27.5310923,30.6203548 27.4414317,30.4674844 C26.8362226,29.3537141 25.9732522,27.9560625 24.8524946,26.2744878 C24.762834,26.1216174 24.7292117,25.9469109 24.7516269,25.7503632 C24.774042,25.5756542 24.8861161,25.4337052 25.0878525,25.324512 C25.2223434,25.2371575 25.4128693,25.2153192 25.659436,25.2589964 C25.8611724,25.2808351 26.0180761,25.3900266 26.1301518,25.5865743 Z" id="緑-copy-23" fill="#C70039"></path>
        </g>
    </g>
</svg>